<?xml version="1.0" encoding="UTF-8"?>
<svg width="1000px" height="1000px" viewBox="0 0 1000 1000" version="1.1" xmlns="http://www.w3.org/2000/svg" xmlns:xlink="http://www.w3.org/1999/xlink">
    <!-- Generator: Sketch 52.6 (67491) - http://www.bohemiancoding.com/sketch -->
    <title>illustration_logo-circle</title>
    <desc>Created with Sketch.</desc>
    <g id="Page-1" stroke="none" stroke-width="1" fill="none" fill-rule="evenodd">
        <g id="Artboard" transform="translate(-147.000000, -177.000000)">
            <g id="illustration_logo-circle" transform="translate(147.000000, 177.000000)">
                <circle id="Oval" fill="#FFFFFF" cx="500" cy="500" r="500"></circle>
                <path d="M741.488276,481.929964 C742.850078,485.707462 742.510847,495.676144 741.084961,507.664062 C739.532496,520.716173 738.569064,516.885113 735.741211,526 C732.913358,535.114887 732.99881,536.227392 729.191406,546 C725.384002,555.772608 723.787784,555.660876 720.157227,566 C716.526669,576.339124 717.446613,575.948461 715.145508,586 C712.844402,596.051539 713.000016,595.984023 711,606 C708.999984,616.015977 708.670282,615.932581 707.158203,626 C705.646124,636.067419 704.675356,636.047988 704.992187,646 C705.309019,655.952012 707.564895,655.919963 708.431641,666 C709.298386,676.080037 709.284622,676.080037 708.431641,686 C707.578659,695.919963 707.862032,696.371165 704.992188,706 C702.122343,715.628835 701.668878,716.544243 696.509766,726 C691.350653,735.455757 690.503022,736.563359 683.167969,746 C675.832916,755.436641 674.672597,756.401358 665.417969,766 C656.163341,775.598642 655.239716,776.28126 644.601562,786 C633.963409,795.71874 637.516842,791.39382 631,797.443359 C624.483158,803.492899 625.868865,800.921881 623.056641,806 C620.244416,811.078119 619.802983,816.356896 615.185547,826 C610.56811,835.643104 610.345548,836.597433 603.90332,846 C597.461093,855.402567 596.765865,856.995625 587.779297,866 C578.792728,875.004375 576.106308,876.318146 563.982422,886 C551.858536,895.681854 557.697271,891.02919 551,895.371094 C544.302729,899.712997 541.04218,901.455573 531,907.382813 C520.95782,913.310052 521.247665,913.766875 511,918.980469 C500.752335,924.194062 506.38654,921.697515 501.455078,922.414063 C496.523617,923.13061 494.337936,923.199745 487.369141,922.414063 C480.400345,921.62838 479.21029,920.550569 471,918.980469 C462.78971,917.410368 460.976122,917.35776 451,915.458984 C441.023878,913.560209 440.672695,914.556436 431,911.367188 C421.327305,908.177939 417.930075,907.594632 406.537109,900.798828 C395.144144,894.003024 397.301739,893.658606 388.472656,886 C379.643573,878.341394 376.955622,876.53673 366.419922,866 C355.884221,855.46327 356.936019,856.45373 348.476563,846 C340.017106,835.54627 338.884858,837.064136 334.050781,826 C329.216705,814.935864 334.05258,815.473683 331,806 C327.94742,796.526317 326.94902,795.420232 321.162109,786 C315.375198,776.579768 313.901569,775.911554 306.427734,766 C298.9539,756.088446 298.483712,756.185845 291,746 C283.516288,735.814155 282.674314,736.730588 277.039063,726 C271.403811,715.269412 273.578574,717.779439 271.654297,709.162109 C269.730019,700.544779 270.934142,697.245509 268.106934,686 C265.279725,674.754491 264.384108,680.192005 262.759766,673.783203 C261.135423,667.374401 261.0725,666.491139 261.336914,659.289063 C261.601328,652.086986 262.434045,652.617178 263.779785,646 C265.125525,639.382822 266.385223,636.088397 268.106934,626 C269.828644,615.911603 273.128276,606.09956 274.019531,586 C274.910787,565.90044 272.619127,566.007076 271.654297,546 C270.689467,525.992924 271.98121,541.453067 271.654297,536.953613 C271.327383,532.45416 271.006818,531.464088 270.201172,526 C269.395526,520.535912 269.388693,519.392163 268.106934,512.894531 C266.825174,506.3969 267.174726,509.449222 266.255859,506 C265.336993,502.550778 264.762414,501.384814 263.779785,496.651367 C262.797156,491.91792 262.801065,491.345203 262.104004,486 C261.406943,480.654797 261.492342,481.971353 261.336914,477.918945 C261.181486,473.866537 260.984766,471.936723 261.336914,466 C261.689062,460.063277 262.391175,459.987968 262.759766,453.931641 C263.128357,447.875313 261.247357,447.357858 262.759766,442.621094 C264.272174,437.884329 265.46967,439.207672 267.230469,439.929688 C268.991267,440.651703 269.609972,446.795387 271,446 C272.390028,445.204613 272.874518,441.118976 274.019531,436.044922 C275.120532,431.165908 273.595078,422.90033 276.650248,419.608659 C276.63749,419.480274 276.625165,419.350308 276.613281,419.21875 C275.226001,403.861184 283.558594,405.969054 283.558594,386 C283.558594,366.030946 276.613281,375.949067 276.613281,346 C276.613281,316.050933 275.397453,312.293095 283.558594,286 C291.719734,259.706905 299.217269,254.696334 311,235.214844 C322.782731,215.733353 325.202188,213.070501 337.316406,197.117188 C349.430625,181.163874 341.793824,187.006701 363.558594,166 C385.323364,144.993299 389.919479,139.066333 411,126 C432.080521,112.933667 424.190148,111.741681 460.359375,106 C496.528602,100.258319 509.65405,104.350661 536.988281,106 C564.322513,107.649339 555.061197,104.403031 591,113.882812 C626.938803,123.362594 638.015059,127.728506 660.125,138.480469 C682.234941,149.232431 678.838368,147.581808 698.171875,166 C717.505382,184.418192 720.111796,191.734391 731,206 C741.888204,220.265609 740.303427,210.620053 751,235.214844 C761.696573,259.809635 764.170376,256.214662 765.792969,286 C767.415561,315.785338 762.093563,315.943086 757.035156,346 C751.97675,376.056914 749.733099,382.328691 745.597656,406 C741.554475,429.143204 742.11623,447.280705 738.520341,453.050225 L744.367188,455.219727 L742.723633,480.976563 L741.488276,481.929964 Z M732.732822,488.687088 L731,490.024414 L728.824542,495.511357 C729.509776,494.280034 730.233683,493.003031 731,491.675781 C731.62258,490.597481 732.198871,489.603097 732.732822,488.687088 Z M712.985655,532.786629 L705.023438,546 L691,563.100586 L681.724609,573.146484 L671,578.28125 L651,580.841797 L632.303711,582.296875 L612.272461,582.296875 L591,578.28125 L580.30957,573.146484 L571,566 L557.641602,547.428711 L551,535.117188 L547.806641,526 L541.020508,506 L536.300781,486 L527.683594,455.219727 L502.560547,453.607422 L498.242188,466 L491,480.976562 L478.491211,506 L471,518.036133 L465.005859,526 L451,539.503906 L440.595703,546 L431,550.46582 L411,556.625 L391,556.625 L380.076172,555.334961 L371,553.500977 L351,547.428711 L331,539.503906 L327.15625,535.117188 L321.538086,526 L311,506 L303.496094,486 L299.483398,467.669922 L298.889969,460.713663 C298.763686,461.119639 298.63275,461.546089 298.498047,461.996094 C296.355327,469.154309 293.25589,465.760847 291,471.048828 C288.74411,476.336809 288.850435,478.446595 288.257813,486 C287.66519,493.553405 288.257813,496 288.257813,506 C288.257813,516 287.575774,516.051172 288.257813,526 C288.939851,535.948828 291,536 291,546 C291,556 289.512266,555.983932 288.257813,566 C287.003359,576.016068 286.652954,575.970727 285.990234,586 C285.327515,596.029273 284.520376,593.591735 285.990234,600.316406 C287.460092,607.041078 288.291426,604.759942 291,608.919922 C293.708574,613.079902 297.108265,617.281235 302.712891,626 C308.317516,634.718765 308.751707,636.015221 314.835938,646 C320.920168,655.984779 320.877163,656.059222 327.086914,666 C333.296665,675.940778 328.79647,671.875977 331,671.875977 C333.20353,671.875977 335.497825,669.674813 336.604492,666 C337.711159,662.325187 336.244825,659.609397 336.604492,653.265625 C336.964159,646.921853 335.389604,646.560973 337.985352,641.644531 C340.581099,636.72809 343.831862,633.105165 351,626 C358.168138,618.894835 360.645876,616.863151 371,608.919922 C374.854875,605.962631 376.525595,606.368068 378.544922,606 C381.761965,605.413621 382.576109,604.660494 387.019531,606 C391.462954,607.339506 389.261129,607.875656 391,610.199219 C392.738871,612.522781 393.802216,616.301616 399.966797,621.171875 C406.131377,626.042134 405.836831,625.751768 411,626 C416.163169,626.248232 424.015543,629.358349 434.942383,626 C445.869223,622.641651 442.843775,619.654613 451,613.706055 C459.156225,607.757497 457.455849,610.650001 461.478516,610.199219 C465.501182,609.748437 464.608472,610.988377 471,611.464844 C477.391528,611.94131 481.831737,610.496659 492.5,611.464844 C503.168263,612.433029 502.940359,612.159423 512.729492,615.251953 C522.518625,618.344483 525.850913,620.106167 538.509766,626 C551.168618,631.893833 544.256824,631.602907 551,633.070313 C557.743176,634.537718 561.397771,635.162126 571,633.070313 C580.602229,630.978499 580.718878,626.565667 591,624.356445 C601.281122,622.147223 598.198925,623.514633 603.90332,626 C609.607716,628.485367 607.826078,629.185659 611,633.070313 C614.173922,636.954966 615.562888,639.582878 620.244141,646 C624.925393,652.417122 624.156089,649.868861 626.685547,654.572266 C629.215005,659.27567 631.65676,660.312206 631,666 C630.34324,671.687794 627.012905,675.993295 623.056641,686 C619.100377,696.006705 618.282783,695.724381 615.185547,706 C612.088311,716.275619 607.726408,726 611,726 C614.273592,726 621.35445,716.363785 631,706 C640.64555,695.636215 640.604473,694.101249 651,683.021484 C661.395527,671.94172 661.807845,673.946258 671,663.367188 C680.192155,652.788117 677.628297,655.051584 683.167969,646 C688.707641,636.948416 690.066919,636.567294 693.869141,626 C697.671363,615.432706 695.148585,617.452818 696.509766,608.919922 C697.870946,600.387026 697.170879,597.085137 700.25,586 C703.329121,574.914863 705.642737,576.377314 708.431641,566 C711.220544,555.622686 709.333366,555.929501 711,546 C712.151191,539.141415 712.023731,536.74124 712.985655,532.786629 Z M291.0177,437.394133 L287.981445,433.445313 L287.981445,406.412109 L304.376433,404.272932 C298.142516,404.352044 291.85805,401.380853 287.171875,406 C280.801935,412.278829 288.949556,423.774445 287.171875,426 C286.985962,426.232753 286.738624,426.510625 286.443157,426.804066 C288.158823,430.343541 284.318102,430.646572 285.990234,433.320312 C286.807156,434.62657 288.78825,435.789885 291.0177,437.394133 Z M716.185128,445.447102 C706.392185,424.863581 709.320809,421.756309 711,396.558594 C712.694113,371.136966 723.113281,369.120145 723.113281,346 C723.113281,322.879855 718.045604,317.38 711,299.828125 C703.954396,282.27625 698.106376,274.553328 691,266 C683.893624,257.446672 686.284862,257.262329 671,251.683594 C655.715138,246.104859 659.072611,250.707898 636.203125,246 C613.333639,241.292102 610.86646,237.251503 591,235.214844 C571.13354,233.178185 571,235.214844 531,235.214844 C491,235.214844 476.784747,237.034245 451,235.214844 C425.215253,233.395443 415.636813,226 400.40625,226 C385.175687,226 386.687044,220.438164 371,235.214844 C355.312956,249.991524 358.718874,261.351972 351,272.539062 C343.281126,283.726153 336.800351,286.92432 331,293.1875 C325.199649,299.45068 324.636725,266.934893 320.011719,306 C315.386713,345.065107 320.829075,377.246368 320.011719,386 C319.194362,394.753632 319.135066,397.558307 311,402.512695 C310.01746,403.111078 309.017589,403.524197 308.007684,403.799136 L312.830078,403.169922 L351,400.339844 L391,400.339844 L411,403.169922 L431,406.412109 L451,411.714844 L471,420.742188 L481.173828,426 L555.589844,433.445313 L571,429.037109 L591,426 L611,426 L631,426 L651,428.509766 L671,432.168945 L691,438.022461 L711,443.762695 L716.185128,445.447102 Z M331,418.777344 C331,418.777344 328.69401,421.184896 324.082031,426 L319.208984,433.775391 L316.898438,446 L315.825195,456.292969 L315.825195,466 L316.898438,475.332031 L319.208984,486 L321.878906,496.726562 L325.761719,506 L331,516.326172 L336.147461,526 L342.59082,532.788086 L351,536.952148 L361.436523,539.96582 L371,543.356445 L379.957031,544.634766 L391,546 L402.248047,544.634766 L411,543.356445 L420.569336,541.825195 L431,536.952148 L440.874023,531.477539 L451,522.137695 L460.494629,506 L471,486 L474.741211,477.618164 L476.189453,466 L476.189453,446 L474.741211,440.698242 L471,436.811523 L451,423.810547 L431,416.273438 L411,410.447266 L391,408.355469 L371,408.355469 L351,410.447266 C342.410156,413.178385 338.115234,414.543945 338.115234,414.543945 C338.115234,414.543945 331,418.777344 331,418.777344 Z M701.524939,456.310267 C701.524939,456.310267 695.159554,451.015921 695.159554,451.015921 C695.159554,451.015921 691.131131,448.995299 683.074283,444.954056 L663.647746,439.759324 L643.893979,436.630634 L623.812983,435.567988 L603.147802,438.193741 L582.214972,442.509367 L560.427404,452.221591 L556.124237,455.475203 L553.864447,460.485132 L550.735758,480.238899 L550.348689,491.940579 L552.732631,500.804475 L559.979974,522.201644 L566.833217,539.625945 L575.373452,550.434852 L584.269493,557.386697 L593.809425,563.831464 L603.021407,566.840836 L611.465635,569.472525 L622.36163,572.580533 L633.482212,572.959608 L642.52894,573.098214 L652.505085,571.245391 L663.28456,569.901454 L672.241611,567.104144 L679.667533,561.407594 L686.26494,552.658107 L693.054099,543.278515 L698.339793,534.726655 L702.654847,524.549822 L706.605786,514.374643 L709.125666,505.325396 L710.64418,495.737875 L711.194326,485.403737 L710.824576,472.968184 L707.227864,464.526209 C703.425914,459.048914 701.524939,456.310267 701.524939,456.310267 Z M378.558594,655.925781 C374.484617,661.785395 376.877738,660.960491 377.094727,666 C377.311715,671.039509 378.36281,676.011562 379.853516,686 C381.344222,695.988438 381.45179,696.000808 383.064453,706 C384.677116,715.999192 384.466096,716.027804 386.304688,726 C388.143279,735.972196 388.368955,737.566611 391,749.041016 C393.631045,760.51542 391.484776,758.083866 395.476562,766 C399.468349,773.916134 401.14842,778.792994 411,788.703125 C420.85158,798.613256 422.24576,798.516122 435.240234,806 C448.234709,813.483878 442.640794,811.323577 451,811.740234 C459.359206,812.156892 471.065189,810.686472 491,808.779297 C510.934811,806.872122 501.007291,807.42523 511,806 C520.992709,804.57477 522.418967,807.019344 531,803.074219 C539.581033,799.129093 544.159659,795.585812 554.501953,786 C564.844248,776.414188 563.661939,776.434969 571,766 C578.338061,755.565031 577.232507,757.919624 580.492188,749.041016 C583.751868,740.162407 583.555409,737.579144 585.685547,726 C587.815685,714.420856 587.194152,716.012485 588.410156,706 C589.626161,695.987515 595.958897,690.948487 591,682.241211 C586.041103,673.533935 580.896735,679.034115 571,675.429687 C561.103265,671.82526 558.850156,670.419167 546.40625,666 C533.962344,661.580833 538.691741,663.637576 531,661.224609 C523.308259,658.811643 520.835081,660.274358 514.292969,655.925781 C507.750857,651.577204 510.761945,651.122188 508.095703,646 C505.429461,640.877812 507.920476,636.511369 502.505859,633.28125 C497.091243,630.051131 494.285914,631.886791 486.775391,633.28125 C479.264868,634.675709 478.76201,635.987832 471,639.130859 C463.23799,642.273886 461.592747,645.480414 451,647.767578 C440.407253,650.054743 440.972102,648.20824 431,647.767578 C421.027898,647.326916 421.027898,646.443127 411,646 C400.972102,645.556873 399.717445,643.332808 391,646 C382.282555,648.667192 382.63257,650.066167 378.558594,655.925781 Z" id="Combined-Shape" fill="#1E2858"></path>
            </g>
        </g>
    </g>
</svg>